<svg xmlns="http://www.w3.org/2000/svg" version="1.1" xmlns:xlink="http://www.w3.org/1999/xlink" xmlns:svgjs="http://svgjs.dev/svgjs" width="2000" height="856" viewBox="0 0 2000 856"><g transform="matrix(1,0,0,1,1.2063953079177736,0.7279927103614341)"><svg viewBox="0 0 341 146" data-background-color="#ffffff" preserveAspectRatio="xMidYMid meet" height="856" width="2000" xmlns="http://www.w3.org/2000/svg" xmlns:xlink="http://www.w3.org/1999/xlink"><g id="tight-bounds" transform="matrix(1,0,0,1,-0.2056903999999804,-0.12416698097285916)"><svg viewBox="0 0 341.41138079999996 146.24833396194572" height="146.24833396194572" width="341.41138079999996"><g><svg viewBox="0 0 341.41138079999996 146.24833396194572" height="146.24833396194572" width="341.41138079999996"><g><svg viewBox="0 0 341.41138079999996 146.24833396194572" height="146.24833396194572" width="341.41138079999996"><g><svg viewBox="0 0 341.41138079999996 146.24833396194572" height="146.24833396194572" width="341.41138079999996"><g><path d="M0 146.248v-146.248h341.411v146.248z" fill="#093d65" stroke="transparent" stroke-width="0" rx="0%" data-fill-palette-color="tertiary"></path><path d="M4.509 141.739v-137.23h332.393v137.23z" fill="#ffffff" stroke="transparent" stroke-width="0" rx="0%" data-fill-palette-color="quaternary"></path><path d="M13.527 132.721v-119.194h314.357v119.194z" fill="#093d65" stroke="transparent" stroke-width="0" data-fill-palette-color="tertiary"></path></g><g transform="matrix(1,0,0,1,27.054309599999996,27.054309599999996)" id="textblocktransform"><svg viewBox="0 0 287.30276159999994 92.13971476194574" height="92.13971476194574" width="287.30276159999994" id="textblock"><g><svg viewBox="0 0 287.30276159999994 92.13971476194574" height="92.13971476194574" width="287.30276159999994"><g transform="matrix(1,0,0,1,0,0)"><svg width="287.30276159999994" viewBox="1.3 -36.75 116.14 37.25" height="92.13971476194574" data-palette-color="#ffffff"><path d="M8.45 0.5L8.45 0.5Q7.05 0.5 5.78 0.28 4.5 0.05 3.48-0.73 2.45-1.5 1.88-3.05 1.3-4.6 1.3-7.15L1.3-7.15Q1.3-9.75 1.83-11.38 2.35-13 3.28-13.88 4.2-14.75 5.33-15.08 6.45-15.4 7.65-15.4L7.65-15.4Q8.4-15.4 9.43-15.25 10.45-15.1 11.15-14.7L11.15-14.7Q11.15-14.7 11.15-15.35 11.15-16 11.15-16.9 11.15-17.8 11.15-18.5L11.15-18.5Q11.15-19.5 10.85-20.05 10.55-20.6 9.95-20.85 9.35-21.1 8.4-21.1L8.4-21.1Q6.65-21.1 4.9-20.78 3.15-20.45 2-20L2-20Q1.6-20.7 1.48-21.4 1.35-22.1 1.35-22.6L1.35-22.6Q1.35-23 1.5-23.45 1.65-23.9 1.95-24.1L1.95-24.1Q2.55-24.5 4.6-25 6.65-25.5 9.55-25.5L9.55-25.5Q12.85-25.5 14.3-24.15 15.75-22.8 15.75-19.4L15.75-19.4 15.75-16.85Q15.75-14 15.73-11.08 15.7-8.15 15.65-5.6 15.6-3.05 15.5-1.15L15.5-1.15Q14.4-0.5 12.6 0 10.8 0.5 8.45 0.5ZM8.8-3.3L8.8-3.3Q9.5-3.3 10.13-3.53 10.75-3.75 11-4L11-4Q11.1-4.75 11.13-6.05 11.15-7.35 11.15-8.83 11.15-10.3 11.15-11.55L11.15-11.55Q10.75-11.8 10.18-11.9 9.6-12 9.15-12L9.15-12Q8.55-12 7.98-11.83 7.4-11.65 6.98-11.13 6.55-10.6 6.33-9.7 6.1-8.8 6.1-7.3L6.1-7.3Q6.1-6.1 6.28-5.33 6.45-4.55 6.8-4.1 7.15-3.65 7.68-3.48 8.2-3.3 8.8-3.3ZM19.5 0L19.5 0 19.5-23.25Q20.9-24.25 22.65-24.88 24.4-25.5 26.35-25.5L26.35-25.5Q28.35-25.5 29.07-24.95 29.8-24.4 29.8-23.25L29.8-23.25Q29.8-22.85 29.7-22.1 29.6-21.35 29.3-20.6L29.3-20.6Q28.8-20.85 28.25-20.98 27.7-21.1 27.1-21.1L27.1-21.1Q26.4-21.1 25.62-20.85 24.85-20.6 24.2-20.1L24.2-20.1 24.15-0.9Q24.15-0.45 23.95-0.28 23.75-0.1 22.77-0.05 21.8 0 19.5 0ZM38.14 0.5L38.14 0.5Q36.29 0.5 34.89 0.03 33.49-0.45 32.57-1.8 31.64-3.15 31.17-5.58 30.69-8 30.69-11.95L30.69-11.95Q30.69-16.45 31.49-19.15 32.29-21.85 33.62-23.23 34.94-24.6 36.52-25.05 38.09-25.5 39.64-25.5L39.64-25.5Q41.44-25.5 42.62-24.85 43.79-24.2 43.79-23.15L43.79-23.15Q43.79-22.7 43.69-22.05 43.59-21.4 43.34-20.65L43.34-20.65Q42.74-20.95 41.82-21.2 40.89-21.45 39.94-21.45L39.94-21.45Q39.14-21.45 38.34-21.15 37.54-20.85 36.89-19.9 36.24-18.95 35.84-17.05 35.44-15.15 35.44-11.95L35.44-11.95Q35.44-9.5 35.67-7.85 35.89-6.2 36.39-5.28 36.89-4.35 37.67-3.95 38.44-3.55 39.54-3.55L39.54-3.55Q40.64-3.55 41.64-3.85 42.64-4.15 43.24-4.55L43.24-4.55Q43.49-3.8 43.59-3.23 43.69-2.65 43.69-2.1L43.69-2.1Q43.69-1 42.14-0.25 40.59 0.5 38.14 0.5ZM46.64 0L46.64 0 46.64-34.7Q46.64-35.75 46.99-36.18 47.34-36.6 48.34-36.68 49.34-36.75 51.19-36.75L51.19-36.75 51.19-23.6Q52.24-24.55 53.69-25.03 55.14-25.5 56.54-25.5L56.54-25.5Q58.64-25.5 59.69-24.75 60.74-24 61.14-22.55 61.54-21.1 61.54-18.95L61.54-18.95 61.54-0.9Q61.54-0.45 61.27-0.28 60.99-0.1 60.02-0.05 59.04 0 56.79 0L56.79 0 56.79-17.6Q56.79-19.1 56.39-20.2 55.99-21.3 54.34-21.3L54.34-21.3Q53.64-21.3 52.82-21.05 51.99-20.8 51.19-20.15L51.19-20.15 51.19-0.9Q51.19-0.45 51.02-0.28 50.84-0.1 49.87-0.05 48.89 0 46.64 0ZM73.04 0.5L73.04 0.5Q71.29 0.5 69.84 0 68.39-0.5 67.34-1.75 66.29-3 65.69-5.3 65.09-7.6 65.09-11.25L65.09-11.25Q65.09-15.9 65.84-18.73 66.59-21.55 67.84-23 69.09-24.45 70.69-24.98 72.29-25.5 73.94-25.5L73.94-25.5Q77.04-25.5 78.69-23.53 80.34-21.55 80.34-17.45L80.34-17.45Q80.34-15.7 80.19-13.9 80.04-12.1 79.69-10.75L79.69-10.75Q78.04-10.4 76.02-10.23 73.99-10.05 72.12-10 70.24-9.95 69.04-9.95 67.84-9.95 67.84-9.95L67.84-9.95 67.94-13.65Q67.94-13.65 68.79-13.63 69.64-13.6 70.94-13.6 72.24-13.6 73.52-13.73 74.79-13.85 75.64-14.1L75.64-14.1Q75.79-14.75 75.84-15.53 75.89-16.3 75.89-17L75.89-17Q75.84-19.6 75.32-20.55 74.79-21.5 73.39-21.5L73.39-21.5Q72.59-21.5 71.94-21 71.29-20.5 70.82-19.35 70.34-18.2 70.09-16.28 69.84-14.35 69.84-11.45L69.84-11.45Q69.84-9.3 70.07-7.85 70.29-6.4 70.77-5.55 71.24-4.7 72.07-4.33 72.89-3.95 74.04-3.95L74.04-3.95Q75.49-3.95 76.92-4.35 78.34-4.75 79.59-5.45L79.59-5.45Q79.84-4.8 79.92-3.93 79.99-3.05 79.99-2.35L79.99-2.35Q79.99-1.5 79.04-0.85 78.09-0.2 76.52 0.15 74.94 0.5 73.04 0.5ZM90.99 0.5L90.99 0.5Q88.04 0.5 86.41-0.4 84.79-1.3 84.14-3.08 83.49-4.85 83.49-7.55L83.49-7.55 83.49-24.1Q83.49-24.55 83.69-24.73 83.89-24.9 84.89-24.95 85.89-25 88.24-25L88.24-25 88.24-7.2Q88.24-5.85 88.46-5.03 88.69-4.2 89.29-3.83 89.89-3.45 91.04-3.45L91.04-3.45Q91.64-3.45 92.44-3.63 93.24-3.8 93.89-4.3L93.89-4.3 93.89-24.1Q93.89-24.55 94.09-24.73 94.29-24.9 95.24-24.95 96.19-25 98.44-25L98.44-25 98.44-1.35Q97.09-0.6 95.09-0.05 93.09 0.5 90.99 0.5ZM102.49 0L102.49 0 102.49-23.8Q103.44-24.25 104.76-24.63 106.09-25 107.56-25.25 109.04-25.5 110.34-25.5L110.34-25.5Q112.99-25.5 114.51-24.88 116.04-24.25 116.74-22.8 117.44-21.35 117.44-18.9L117.44-18.9 117.44-0.9Q117.44-0.45 117.21-0.28 116.99-0.1 116.01-0.05 115.04 0 112.74 0L112.74 0 112.74-17.5Q112.74-19.75 112.26-20.65 111.79-21.55 110.19-21.55L110.19-21.55Q109.49-21.55 108.61-21.35 107.74-21.15 107.04-20.75L107.04-20.75 107.04-0.9Q107.04-0.45 106.84-0.28 106.64-0.1 105.69-0.05 104.74 0 102.49 0Z" opacity="1" transform="matrix(1,0,0,1,0,0)" fill="#ffffff" class="wordmark-text-0" data-fill-palette-color="quaternary" id="text-0"></path></svg></g></svg></g></svg></g></svg></g><g></g></svg></g></svg></g><defs></defs></svg><rect width="341.41138079999996" height="146.24833396194572" fill="none" stroke="none" visibility="hidden"></rect></g></svg></g></svg>